<svg width="99" height="100" viewBox="0 0 99 100" fill="none" xmlns="http://www.w3.org/2000/svg">
<path d="M71.9958 55C75.7069 55 78.9727 52.95 80.655 49.85L98.3695 17.4C100.2 14.1 97.8252 10 94.0646 10H20.8318L16.1805 0H0V10H9.89633L27.7097 47.95L21.0297 60.15C17.4175 66.85 22.1678 75 29.689 75H89.0669V65H29.689L35.132 55H71.9958ZM25.5325 20H85.6527L71.9958 45H37.2597L25.5325 20ZM29.689 80C24.246 80 19.8421 84.5 19.8421 90C19.8421 95.5 24.246 100 29.689 100C35.132 100 39.5853 95.5 39.5853 90C39.5853 84.5 35.132 80 29.689 80ZM79.1706 80C73.7276 80 69.3238 84.5 69.3238 90C69.3238 95.5 73.7276 100 79.1706 100C84.6136 100 89.0669 95.5 89.0669 90C89.0669 84.5 84.6136 80 79.1706 80Z" fill="white"/>
</svg>
