<svg width="110" height="108" viewBox="0 0 110 108" fill="none" xmlns="http://www.w3.org/2000/svg">
<path d="M21.5001 75.4843L21.4976 75.6419L21.586 75.7724C28.7715 86.382 41.0797 93.38 55 93.38C68.9203 93.38 81.2285 86.382 88.414 75.7724L88.5024 75.6419L88.4999 75.4843C88.4559 72.6144 86.9591 70.1107 84.6515 67.9915C82.3455 65.8738 79.1929 64.1033 75.7323 62.6837C68.8127 59.845 60.5396 58.36 55 58.36C49.433 58.36 41.1599 59.8449 34.2469 62.6837C30.7896 64.1035 27.6421 65.874 25.3404 67.9918C23.037 70.1112 21.5441 72.6148 21.5001 75.4843ZM0.5 54C0.5 24.4768 24.9075 0.5 55 0.5C85.0925 0.5 109.5 24.4768 109.5 54C109.5 83.5232 85.0925 107.5 55 107.5C24.9075 107.5 0.5 83.5232 0.5 54ZM72 32.4C72 23.1512 64.3975 15.7 55 15.7C45.6025 15.7 38 23.1512 38 32.4C38 41.6488 45.6025 49.1 55 49.1C64.3975 49.1 72 41.6488 72 32.4Z" fill="white" stroke="black"/>
</svg>
